<?xml version="1.0" encoding="UTF-8" standalone="no"?>
<svg width="30px" height="26px" viewBox="0 0 30 26" version="1.1" xmlns="http://www.w3.org/2000/svg" xmlns:xlink="http://www.w3.org/1999/xlink">
    <!-- Generator: Sketch 46.1 (44463) - http://www.bohemiancoding.com/sketch -->
    <title>heart</title>
    <desc>Created with Sketch.</desc>
    <defs></defs>
    <g id="Page-1" stroke="none" stroke-width="1" fill="none" fill-rule="evenodd">
        <g id="Актеры" transform="translate(-257.000000, -182.000000)" fill-rule="nonzero" fill="#FFFFFF">
            <g id="favourite" transform="translate(242.000000, 163.000000)">
                <g id="heart" transform="translate(15.000000, 19.000000)">
                    <path d="M27.5593856,2.4375625 C25.9894703,0.8938125 23.9110805,0.0500625 21.6928602,0.0500625 C19.4746398,0.0500625 17.3898941,0.9000625 15.8199788,2.4438125 L15.0000636,3.2500625 L14.1674364,2.4313125 C12.5975212,0.8875625 10.5064195,0.0313125 8.28819915,0.0313125 C6.07633475,0.0313125 3.99158898,0.8813125 2.42802966,2.4188125 C0.858114407,3.9625625 -0.00629237288,6.0125625 6.35593211e-05,8.1938125 C6.35593211e-05,10.3750625 0.870826271,12.4188125 2.44074153,13.9625625 L14.3771822,25.7000625 C14.5424364,25.8625625 14.7648941,25.9500625 14.9809958,25.9500625 C15.1970975,25.9500625 15.4195551,25.8688125 15.5848093,25.7063125 L27.5466737,13.9875625 C29.116589,12.4438125 29.9809958,10.3938125 29.9809958,8.2125625 C29.9873517,6.0313125 29.1293008,3.9813125 27.5593856,2.4375625 Z M26.9688631,13.0008985 L14.9899506,25.0313125 L3.03785159,12.9806226 C1.72399213,11.6559253 1.00002876,9.89867381 1.00002876,8.02652512 C1.00002876,6.15437643 1.71728877,4.39712495 3.03114822,3.07918634 C4.33830432,1.76124773 6.08117911,1.0313125 7.93130773,1.0313125 C9.78813972,1.0313125 11.5377179,1.76124773 12.8515773,3.085945 L14.3665377,4.61340205 C14.7218161,4.97161101 15.291602,4.97161101 15.6468804,4.61340205 L17.148434,3.09946232 C18.4622935,1.77476505 20.2118717,1.04482982 22.0620003,1.04482982 C23.9121289,1.04482982 25.6550037,1.77476505 26.9688631,3.09270366 C28.2827226,4.41740093 28.9999826,6.1746524 28.9999826,8.04680109 C29.006686,9.91894979 28.2827226,11.6762013 26.9688631,13.0008985 Z" id="Shape"></path>
                </g>
            </g>
        </g>
    </g>
</svg>