<?xml version="1.0" encoding="UTF-8" standalone="no"?>
<svg width="30px" height="20px" viewBox="0 0 30 20" version="1.1" xmlns="http://www.w3.org/2000/svg" xmlns:xlink="http://www.w3.org/1999/xlink">
    <!-- Generator: Sketch 43.1 (39012) - http://www.bohemiancoding.com/sketch -->
    <title>language_icon</title>
    <desc>Created with Sketch.</desc>
    <defs>
        <rect id="path-1" x="0" y="0" width="30" height="20" rx="2"></rect>
    </defs>
    <g id="Page-1" stroke="none" stroke-width="1" fill="none" fill-rule="evenodd">
        <g id="Актеры" transform="translate(-990.000000, -540.000000)">
            <g id="language_icon" transform="translate(990.000000, 540.000000)">
                <g id="Rectangle-6">
                    <use fill="#FFFFFF" fill-rule="evenodd" xlink:href="#path-1"></use>
                    <rect stroke="#FFFFFF" stroke-width="1" x="0.5" y="0.5" width="29" height="19" rx="2"></rect>
                </g>
                <text id="A" font-family="NotoSans-Bold, Noto Sans" font-size="14" font-weight="bold" fill="#000000">
                    <tspan x="5" y="15">A</tspan>
                </text>
                <path d="M20.0680334,3.6343347 C19.8839466,3.57344774 19.6840206,3.6697661 19.6213677,3.84967504 C19.5590669,4.02923998 19.6576219,4.22497265 19.8417087,4.28620361 C22.3411358,5.1155735 24.0204438,7.40382257 24.0204438,9.98033874 C24.0204438,12.5544469 22.3443036,14.84304 19.8498043,15.6748179 C19.6660695,15.7360488 19.5675144,15.9314375 19.6305193,16.1116904 C19.6805008,16.254448 19.81707,16.3445745 19.9634946,16.3445745 C20.0011567,16.3445745 20.0395228,16.3387266 20.0771849,16.3259988 C22.856438,15.3996225 24.7240566,12.8495939 24.7240566,9.98068273 C24.7244086,7.10867559 22.8532701,4.55864698 20.0680334,3.6343347 Z" id="Shape" stroke="#000000" stroke-width="0.5" fill="#000000" fill-rule="nonzero"></path>
                <path d="M20.556567,9.97999475 C20.556567,7.9256617 19.1454695,6.09217289 17.1250906,5.5211426 C16.9374839,5.46919949 16.7435416,5.57342971 16.6893363,5.7564346 C16.635483,5.9387515 16.7428377,6.12966825 16.9300923,6.18229935 C18.6509343,6.66836309 19.8529542,8.23009652 19.8529542,9.97999475 C19.8529542,11.729893 18.6509343,13.2916264 16.9300923,13.7776901 C16.7431896,13.8303212 16.635483,14.021238 16.6893363,14.2035549 C16.7340381,14.3542243 16.8744791,14.4522627 17.0275914,14.4522627 C17.0599738,14.4522627 17.0927082,14.4477907 17.1250906,14.4388469 C19.1458215,13.8678166 20.556567,12.0343278 20.556567,9.97999475 Z" id="Shape" stroke="#000000" stroke-width="0.5" fill="#000000" fill-rule="nonzero"></path>
            </g>
        </g>
    </g>
</svg>