<?xml version="1.0" encoding="UTF-8" standalone="no"?>
<svg width="21px" height="20px" viewBox="0 0 21 20" version="1.1" xmlns="http://www.w3.org/2000/svg" xmlns:xlink="http://www.w3.org/1999/xlink">
    <!-- Generator: Sketch 43.1 (39012) - http://www.bohemiancoding.com/sketch -->
    <title>settings-cogwheel-button</title>
    <desc>Created with Sketch.</desc>
    <defs></defs>
    <g id="Page-1" stroke="none" stroke-width="1" fill="none" fill-rule="evenodd">
        <g id="Актеры" transform="translate(-1110.000000, -540.000000)" fill-rule="nonzero" fill="#FFFFFF">
            <g id="settings-cogwheel-button" transform="translate(1110.000000, 540.000000)">
                <path d="M17.8979154,11.0552546 C17.8979154,10.7537477 17.9999304,10.4522407 17.9999304,10.0502315 C17.9999304,9.64822219 17.9999304,9.34671525 17.8979154,9.04520831 L20.0402312,7.33666896 C20.2442613,7.13566433 20.2442613,6.9346597 20.1422463,6.73365507 L18.1019455,3.21607406 C17.9999304,3.11557175 17.7959403,3.01506944 17.4898552,3.11557175 L14.9394792,4.12059489 C14.429404,3.71858564 13.8173138,3.41707869 13.2052235,3.11557175 L12.7971634,0.502511573 C12.8991784,0.201004629 12.5930933,0 12.3891032,0 L8.3085016,0 C8.10443152,0 7.7984264,0.201004629 7.7984264,0.402009258 L7.39036624,3.11557175 C6.778276,3.31657638 6.2682008,3.71858564 5.65611056,4.12059489 L3.2077496,3.11557175 C2.90170447,3.01506944 2.69767439,3.11557175 2.49360431,3.31657638 L0.453303505,6.83415739 C0.351288465,6.9346597 0.453303505,7.23616664 0.657333586,7.43717127 L2.79964943,9.04520831 C2.79964943,9.34671525 2.69763439,9.64822219 2.69763439,10.0502315 C2.69763439,10.4522407 2.69763439,10.7537477 2.79964943,11.0552546 L0.657333586,12.7637939 C0.453303505,12.964838 0.453303505,13.1658032 0.555318546,13.3668472 L2.59561935,16.8844283 C2.69763439,16.9849306 2.90162446,17.0854329 3.20770959,16.9849306 L5.75808559,15.9799074 C6.26816079,16.3819167 6.88025104,16.6834236 7.49234128,16.9849306 L7.90040144,19.5979907 C7.90040144,19.7989954 8.10443152,20 8.41047664,20 L12.4910782,20 C12.6951483,20 13.0011534,19.798956 13.0011534,19.5979907 L13.4092136,16.9849306 C14.0213038,16.6834236 14.6333941,16.3819167 15.1434693,15.9799074 L17.6938453,16.9849306 C17.8979154,17.0854329 18.2039205,16.9849306 18.3059755,16.7838865 L20.3462763,13.2663055 C20.4482914,13.0653009 20.4482914,12.7637939 20.2442213,12.6632916 L17.8979154,11.0552546 Z M10.3488024,13.5678125 C8.41051664,13.5678125 6.778276,11.9597754 6.778276,10.0502315 C6.778276,8.14068748 8.41051664,6.53265044 10.3488024,6.53265044 C12.2870882,6.53265044 13.9193288,8.14068748 13.9193288,10.0502315 C13.9193288,11.9597754 12.2870882,13.5678125 10.3488024,13.5678125 Z" id="Shape"></path>
            </g>
        </g>
    </g>
</svg>