<?xml version="1.0" encoding="UTF-8" standalone="no"?>
<svg width="30px" height="31px" viewBox="0 0 30 31" version="1.1" xmlns="http://www.w3.org/2000/svg" xmlns:xlink="http://www.w3.org/1999/xlink">
    <!-- Generator: Sketch 46.1 (44463) - http://www.bohemiancoding.com/sketch -->
    <title>clock-with-white-face</title>
    <desc>Created with Sketch.</desc>
    <defs></defs>
    <g id="Page-1" stroke="none" stroke-width="1" fill="none" fill-rule="evenodd">
        <g id="Актеры" transform="translate(-257.000000, -108.000000)" fill-rule="nonzero" fill="#FFFFFF">
            <g id="watch-later" transform="translate(242.000000, 93.074074)">
                <g id="clock-with-white-face" transform="translate(15.000000, 15.000000)">
                    <path d="M15,0 C6.75,0 0,6.75 0,15 C0,23.25 6.75,30 15,30 C23.25,30 30,23.25 30,15 C30,6.75 23.25,0 15,0 Z M15,28.5 C7.575,28.5 1.5,22.425 1.5,15 C1.5,7.575 7.575,1.5 15,1.5 C22.425,1.5 28.5,7.575 28.5,15 C28.5,22.425 22.425,28.5 15,28.5 Z" id="Shape"></path>
                    <polygon id="Shape" points="15 7.5 12.75 7.5 12.75 16.5 20.55 21.3 21.75 19.35 15 15.3"></polygon>
                </g>
            </g>
        </g>
    </g>
</svg>