<?xml version="1.0" encoding="UTF-8" standalone="no"?>
<svg width="32px" height="32px" viewBox="0 0 32 32" version="1.1" xmlns="http://www.w3.org/2000/svg" xmlns:xlink="http://www.w3.org/1999/xlink">
    <!-- Generator: Sketch 46.1 (44463) - http://www.bohemiancoding.com/sketch -->
    <title>user-2</title>
    <desc>Created with Sketch.</desc>
    <defs></defs>
    <g id="Page-1" stroke="none" stroke-width="1" fill="none" fill-rule="evenodd">
        <g id="Актеры" transform="translate(-1279.000000, -15.000000)">
            <g id="user-2" transform="translate(1280.000000, 16.000000)">
                <path d="M14.9996,0 C6.7157,0 9.99999993e-05,6.7158 9.99999993e-05,14.9997 C9.99999993e-05,23.2834 6.7157,29.9997 14.9996,29.9997 C23.2835,29.9997 29.9996,23.2834 29.9996,14.9997 C29.9996,6.7156 23.2835,0 14.9996,0 Z" id="Path" stroke="#000000" stroke-width="1.5"></path>
                <path d="M15.0453,22.0763 L15.0453,22.0761 L14.9537,22.0761 L8.5465,22.0761 C8.5465,17.3905 12.6617,17.3916 13.5749,16.1664 L13.6794,15.6077 C12.3964,14.9575 11.4907,13.3899 11.4907,11.5565 C11.4907,9.1411 13.0619,7.1827 14.9996,7.1827 C16.9373,7.1827 18.5085,9.1411 18.5085,11.5565 C18.5085,13.3743 17.6189,14.9321 16.353,15.5926 L16.472,16.2275 C17.4739,17.3933 21.4522,17.4693 21.4522,22.0763 L15.0453,22.0763 L15.0453,22.0763 Z" id="Path" fill="#000000"></path>
            </g>
        </g>
    </g>
</svg>