<?xml version="1.0" encoding="UTF-8" standalone="no"?>
<svg width="20px" height="20px" viewBox="0 0 20 20" version="1.1" xmlns="http://www.w3.org/2000/svg" xmlns:xlink="http://www.w3.org/1999/xlink">
    <!-- Generator: Sketch 43.1 (39012) - http://www.bohemiancoding.com/sketch -->
    <title>star</title>
    <desc>Created with Sketch.</desc>
    <defs></defs>
    <g id="Page-1" stroke="none" stroke-width="1" fill="none" fill-rule="evenodd">
        <g id="Актеры" transform="translate(-929.000000, -872.000000)" fill-rule="nonzero" fill="#000000">
            <g id="star" transform="translate(929.000000, 872.000000)">
                <path d="M19.9407377,7.20536885 C19.8751639,7.00454918 19.7030328,6.86110656 19.4940164,6.82831967 L13.2645082,5.94307377 L10.4612295,0.307827869 C10.3669672,0.119303279 10.1743443,0.000450819672 9.96532787,0.000450819672 L9.96532787,0.000450819672 C9.75631148,0.000450819672 9.56368852,0.119303279 9.46942623,0.31192623 L6.70303279,5.96356557 L0.47352459,6.88979508 C0.264508197,6.92258197 0.0923770492,7.06602459 0.0268032787,7.26684426 C-0.0387704918,7.46766393 0.0186065574,7.68897541 0.170245902,7.83241803 L4.6907377,12.2135656 L3.64565574,18.4184836 C3.60877049,18.6275 3.69483607,18.8365164 3.86696721,18.9594672 C3.96122951,19.0291393 4.07598361,19.0660246 4.1907377,19.0660246 C4.28090164,19.0660246 4.36696721,19.0455328 4.44893443,19.0004508 L10.0104098,16.0537295 L15.5882787,18.9676639 C15.6702459,19.0086475 15.7563115,19.0291393 15.842377,19.0291393 L15.842377,19.0291393 C16.1456557,19.0291393 16.3956557,18.7791393 16.3956557,18.4758607 C16.3956557,18.4307787 16.3915574,18.3897951 16.3792623,18.3488115 L15.3013934,12.1807787 L19.7931967,7.77504098 C19.9530328,7.6275 20.0063115,7.40618852 19.9407377,7.20536885 Z M14.3259836,11.5947131 C14.1948361,11.7217623 14.137459,11.9061885 14.1702459,12.0865164 L15.1087705,17.4676639 L10.2645082,14.9389754 C10.1046721,14.8529098 9.91204918,14.8570082 9.74811475,14.9389754 L4.9202459,17.4963525 L5.82598361,12.1070082 C5.85467213,11.9266803 5.79729508,11.7463525 5.66614754,11.6193033 L1.74811475,7.81602459 L7.15385246,7.0127459 C7.33418033,6.98405738 7.48991803,6.87340164 7.56778689,6.70946721 L9.96942623,1.80372951 L12.4038525,6.69717213 C12.4858197,6.86110656 12.6415574,6.9717623 12.8218852,7.00045082 L18.2317213,7.77094262 L14.3259836,11.5947131 Z" id="Shape"></path>
            </g>
        </g>
    </g>
</svg>